STARTFONT 2.1
FONT -jmk-Glean-Bold-R-Normal--20-180-75-75-C-100-ISO10646-1
SIZE 20 75 75
FONTBOUNDINGBOX 10 20 0 -4
COMMENT "Generated by fontforge, http://fontforge.sourceforge.net"
STARTPROPERTIES 29
FONTNAME_REGISTRY ""
FOUNDRY "jmk"
FAMILY_NAME "Glean"
WEIGHT_NAME "Bold"
SLANT "R"
SETWIDTH_NAME "Normal"
ADD_STYLE_NAME ""
PIXEL_SIZE 20
POINT_SIZE 180
RESOLUTION_X 75
RESOLUTION_Y 75
SPACING "C"
AVERAGE_WIDTH 100
CHARSET_REGISTRY "ISO10646"
CHARSET_ENCODING "1"
COPYRIGHT "Ben Weinstein-Raun <b@w-r.me>"
WEIGHT 230
RESOLUTION 75
X_HEIGHT 9
FIGURE_WIDTH 10
QUAD_WIDTH 10
FONT_ASCENT 16
FONT_DESCENT 4
_XMBDFED_INFO "Edited with xmbdfed 3.7."
RELATIVE_WEIGHT 70
RELATIVE_SETWIDTH 50
CAP_HEIGHT 13
UNDERLINE_POSITION -2
UNDERLINE_THICKNESS 2
ENDPROPERTIES
CHARS 241
STARTCHAR solid
ENCODING 0
SWIDTH 480 0
DWIDTH 10 0
BBX 8 18 1 -3
BITMAP
FF
FF
FF
FF
FF
FF
FF
FF
FF
FF
FF
FF
FF
FF
FF
FF
FF
FF
ENDCHAR
STARTCHAR dithered
ENCODING 2
SWIDTH 480 0
DWIDTH 10 0
BBX 10 19 0 -4
BITMAP
5540
AA80
5540
AA80
5540
AA80
5540
AA80
5540
AA80
5540
AA80
5540
AA80
5540
AA80
5540
AA80
5540
ENDCHAR
STARTCHAR horizontal
ENCODING 3
SWIDTH 480 0
DWIDTH 10 0
BBX 9 15 1 -2
BITMAP
CC00
CC00
FC00
FC00
CC00
CC00
CC00
0000
1F80
1F80
0600
0600
0600
0600
0600
ENDCHAR
STARTCHAR form
ENCODING 4
SWIDTH 480 0
DWIDTH 10 0
BBX 9 15 1 -2
BITMAP
FC00
FC00
C000
F800
F800
C000
C000
0000
1F80
1F80
1800
1F00
1F00
1800
1800
ENDCHAR
STARTCHAR carriage
ENCODING 5
SWIDTH 480 0
DWIDTH 10 0
BBX 9 15 1 -2
BITMAP
7800
FC00
CC00
C000
CC00
FC00
7800
0000
1F00
1F80
1980
1F00
1F00
1B80
1980
ENDCHAR
STARTCHAR line
ENCODING 6
SWIDTH 480 0
DWIDTH 10 0
BBX 9 15 1 -2
BITMAP
C000
C000
C000
C000
C000
FC00
FC00
0000
1F80
1F80
1800
1F00
1F00
1800
1800
ENDCHAR
STARTCHAR plus-minus-sign
ENCODING 8
SWIDTH 480 0
DWIDTH 10 0
BBX 9 11 1 -1
BITMAP
1C00
1C00
1C00
FF80
FF80
1C00
1C00
1C00
0000
FF80
FF80
ENDCHAR
STARTCHAR vertical
ENCODING 10
SWIDTH 480 0
DWIDTH 10 0
BBX 9 15 1 -2
BITMAP
CC00
CC00
CC00
7800
7800
3000
3000
0000
1F80
1F80
0600
0600
0600
0600
0600
ENDCHAR
STARTCHAR less-than-or-equal
ENCODING 26
SWIDTH 480 0
DWIDTH 10 0
BBX 8 14 1 -3
BITMAP
04
0E
1C
38
70
E0
70
38
1C
0E
04
00
FF
FF
ENDCHAR
STARTCHAR greater-than-or-equal
ENCODING 27
SWIDTH 480 0
DWIDTH 10 0
BBX 8 14 1 -3
BITMAP
20
70
38
1C
0E
07
0E
1C
38
70
20
00
FF
FF
ENDCHAR
STARTCHAR greek
ENCODING 28
SWIDTH 480 0
DWIDTH 10 0
BBX 10 8 0 0
BITMAP
7FC0
FFC0
BB80
3B80
3B80
3B80
3BC0
39C0
ENDCHAR
STARTCHAR not-equal
ENCODING 29
SWIDTH 480 0
DWIDTH 10 0
BBX 9 12 1 0
BITMAP
0180
0300
FF80
FF80
FF80
0C00
1800
FF80
FF80
FF80
6000
C000
ENDCHAR
STARTCHAR pound
ENCODING 30
SWIDTH 480 0
DWIDTH 10 0
BBX 9 13 1 0
BITMAP
3E00
7F00
7300
7000
7000
7000
FC00
FC00
7000
7000
7000
FF80
FF80
ENDCHAR
STARTCHAR middle
ENCODING 31
SWIDTH 480 0
DWIDTH 10 0
BBX 4 4 3 4
BITMAP
60
F0
F0
60
ENDCHAR
STARTCHAR U+0020
ENCODING 32
SWIDTH 480 0
DWIDTH 10 0
BBX 1 1 9 -4
BITMAP
00
ENDCHAR
STARTCHAR U+0021
ENCODING 33
SWIDTH 480 0
DWIDTH 10 0
BBX 3 13 4 0
BITMAP
E0
E0
E0
E0
E0
E0
E0
E0
E0
00
E0
E0
E0
ENDCHAR
STARTCHAR U+0022
ENCODING 34
SWIDTH 480 0
DWIDTH 10 0
BBX 7 5 2 9
BITMAP
EE
EE
EE
EE
EE
ENDCHAR
STARTCHAR U+0023
ENCODING 35
SWIDTH 480 0
DWIDTH 10 0
BBX 9 12 1 0
BITMAP
3600
3600
FF80
FF80
FF80
3600
3600
FF80
FF80
FF80
3600
3600
ENDCHAR
STARTCHAR U+0024
ENCODING 36
SWIDTH 480 0
DWIDTH 10 0
BBX 8 13 1 0
BITMAP
18
18
7E
FF
DA
F8
7E
1F
5B
FF
7E
18
18
ENDCHAR
STARTCHAR U+0025
ENCODING 37
SWIDTH 480 0
DWIDTH 10 0
BBX 9 13 1 0
BITMAP
7180
FB80
DB00
FF00
7E00
0C00
1C00
1800
3F00
7F80
6D80
EF80
C700
ENDCHAR
STARTCHAR U+0026
ENCODING 38
SWIDTH 480 0
DWIDTH 10 0
BBX 8 15 1 -2
BITMAP
18
18
18
7E
FF
E3
E0
7C
E0
E3
FF
7E
18
18
18
ENDCHAR
STARTCHAR U+0027
ENCODING 39
SWIDTH 480 0
DWIDTH 10 0
BBX 6 5 2 9
BITMAP
3C
38
70
60
C0
ENDCHAR
STARTCHAR U+0028
ENCODING 40
SWIDTH 480 0
DWIDTH 10 0
BBX 6 17 2 -3
BITMAP
0C
1C
38
70
70
E0
E0
E0
E0
E0
E0
E0
70
70
38
1C
0C
ENDCHAR
STARTCHAR U+0029
ENCODING 41
SWIDTH 480 0
DWIDTH 10 0
BBX 6 17 2 -3
BITMAP
C0
E0
70
38
38
1C
1C
1C
1C
1C
1C
1C
38
38
70
E0
C0
ENDCHAR
STARTCHAR U+002a
ENCODING 42
SWIDTH 480 0
DWIDTH 10 0
BBX 8 8 1 2
BITMAP
66
7E
3C
FF
FF
3C
7E
66
ENDCHAR
STARTCHAR U+002b
ENCODING 43
SWIDTH 480 0
DWIDTH 10 0
BBX 9 8 1 2
BITMAP
1C00
1C00
1C00
FF80
FF80
1C00
1C00
1C00
ENDCHAR
STARTCHAR U+002c
ENCODING 44
SWIDTH 480 0
DWIDTH 10 0
BBX 6 5 1 -3
BITMAP
3C
38
70
60
C0
ENDCHAR
STARTCHAR U+002d
ENCODING 45
SWIDTH 480 0
DWIDTH 10 0
BBX 8 3 1 4
BITMAP
FF
FF
FF
ENDCHAR
STARTCHAR U+002e
ENCODING 46
SWIDTH 480 0
DWIDTH 10 0
BBX 4 4 3 -1
BITMAP
60
F0
F0
60
ENDCHAR
STARTCHAR U+002f
ENCODING 47
SWIDTH 480 0
DWIDTH 10 0
BBX 9 16 1 -2
BITMAP
0180
0380
0300
0700
0600
0E00
0C00
1C00
1800
3800
3000
7000
6000
E000
C000
C000
ENDCHAR
STARTCHAR U+0030
ENCODING 48
SWIDTH 480 0
DWIDTH 10 0
BBX 9 13 1 0
BITMAP
1C00
3E00
7700
E780
E780
EF80
FF80
FB80
F380
F380
7700
3E00
1C00
ENDCHAR
STARTCHAR U+0031
ENCODING 49
SWIDTH 480 0
DWIDTH 10 0
BBX 6 13 1 0
BITMAP
0C
1C
3C
7C
DC
1C
1C
1C
1C
1C
1C
1C
1C
ENDCHAR
STARTCHAR U+0032
ENCODING 50
SWIDTH 480 0
DWIDTH 10 0
BBX 9 13 1 0
BITMAP
3E00
7F00
E780
4380
0380
0700
0E00
1C00
3800
7000
E000
FF80
FF80
ENDCHAR
STARTCHAR U+0033
ENCODING 51
SWIDTH 480 0
DWIDTH 10 0
BBX 9 13 1 0
BITMAP
FF80
FF80
0700
0E00
1C00
3E00
3F00
0780
0380
4380
E780
7F00
3E00
ENDCHAR
STARTCHAR U+0034
ENCODING 52
SWIDTH 480 0
DWIDTH 10 0
BBX 9 13 1 0
BITMAP
0F00
1F00
1F00
3F00
3700
7700
6700
FF80
FF80
0700
0700
0700
0700
ENDCHAR
STARTCHAR U+0035
ENCODING 53
SWIDTH 480 0
DWIDTH 10 0
BBX 9 13 1 0
BITMAP
FF80
FF80
E000
E000
FE00
FF00
E780
0380
0380
4380
E780
7F00
3E00
ENDCHAR
STARTCHAR U+0036
ENCODING 54
SWIDTH 480 0
DWIDTH 10 0
BBX 9 13 1 0
BITMAP
3E00
7F00
F380
E100
E000
EE00
FF00
F780
E380
E380
F780
7F00
3E00
ENDCHAR
STARTCHAR U+0037
ENCODING 55
SWIDTH 480 0
DWIDTH 10 0
BBX 9 13 1 0
BITMAP
FF80
FF80
0380
0700
0700
0E00
0E00
1C00
1C00
3800
3800
7000
7000
ENDCHAR
STARTCHAR U+0038
ENCODING 56
SWIDTH 480 0
DWIDTH 10 0
BBX 9 13 1 0
BITMAP
3E00
7F00
F780
E380
E380
7700
3E00
7700
E380
E380
F780
7F00
3E00
ENDCHAR
STARTCHAR U+0039
ENCODING 57
SWIDTH 480 0
DWIDTH 10 0
BBX 9 13 1 0
BITMAP
3E00
7F00
F780
E380
E380
F780
7F80
3B80
0380
4380
E780
7F00
3E00
ENDCHAR
STARTCHAR U+003a
ENCODING 58
SWIDTH 480 0
DWIDTH 10 0
BBX 4 11 3 -1
BITMAP
60
F0
F0
60
00
00
00
60
F0
F0
60
ENDCHAR
STARTCHAR U+003b
ENCODING 59
SWIDTH 480 0
DWIDTH 10 0
BBX 6 13 1 -3
BITMAP
18
3C
3C
18
00
00
00
00
3C
38
70
60
C0
ENDCHAR
STARTCHAR U+003c
ENCODING 60
SWIDTH 480 0
DWIDTH 10 0
BBX 7 11 2 0
BITMAP
04
0E
1C
38
70
E0
70
38
1C
0E
04
ENDCHAR
STARTCHAR U+003d
ENCODING 61
SWIDTH 480 0
DWIDTH 10 0
BBX 8 8 1 2
BITMAP
FF
FF
FF
00
00
FF
FF
FF
ENDCHAR
STARTCHAR U+003e
ENCODING 62
SWIDTH 480 0
DWIDTH 10 0
BBX 7 11 1 0
BITMAP
40
E0
70
38
1C
0E
1C
38
70
E0
40
ENDCHAR
STARTCHAR U+003f
ENCODING 63
SWIDTH 480 0
DWIDTH 10 0
BBX 7 13 2 0
BITMAP
FC
FE
0E
1C
38
70
70
70
70
00
70
70
70
ENDCHAR
STARTCHAR U+0040
ENCODING 64
SWIDTH 480 0
DWIDTH 10 0
BBX 9 13 1 0
BITMAP
3F00
7F80
E180
C180
C780
CF80
CD80
CD80
CF80
C780
E000
7E00
3E00
ENDCHAR
STARTCHAR U+0041
ENCODING 65
SWIDTH 480 0
DWIDTH 10 0
BBX 9 13 1 0
BITMAP
3E00
7F00
F780
E380
E380
E380
FF80
FF80
E380
E380
E380
E380
E380
ENDCHAR
STARTCHAR U+0042
ENCODING 66
SWIDTH 480 0
DWIDTH 10 0
BBX 9 13 1 0
BITMAP
FC00
FE00
EF00
E700
E700
EE00
FF00
E780
E380
E380
E780
FF00
FE00
ENDCHAR
STARTCHAR U+0043
ENCODING 67
SWIDTH 480 0
DWIDTH 10 0
BBX 9 13 1 0
BITMAP
3E00
7F00
F380
E100
E000
E000
E000
E000
E000
E100
F380
7F00
3E00
ENDCHAR
STARTCHAR U+0044
ENCODING 68
SWIDTH 480 0
DWIDTH 10 0
BBX 9 13 1 0
BITMAP
FC00
FE00
E700
E380
E380
E380
E380
E380
E380
E380
E700
FE00
FC00
ENDCHAR
STARTCHAR U+0045
ENCODING 69
SWIDTH 480 0
DWIDTH 10 0
BBX 9 13 1 0
BITMAP
FF80
FF80
E000
E000
E000
FE00
FE00
E000
E000
E000
E000
FF80
FF80
ENDCHAR
STARTCHAR U+0046
ENCODING 70
SWIDTH 480 0
DWIDTH 10 0
BBX 9 13 1 0
BITMAP
FF80
FF80
E000
E000
E000
FE00
FE00
E000
E000
E000
E000
E000
E000
ENDCHAR
STARTCHAR U+0047
ENCODING 71
SWIDTH 480 0
DWIDTH 10 0
BBX 9 13 1 0
BITMAP
3E00
7F00
F380
E100
E000
E000
E780
E780
E380
E380
F380
7F80
3F00
ENDCHAR
STARTCHAR U+0048
ENCODING 72
SWIDTH 480 0
DWIDTH 10 0
BBX 9 13 1 0
BITMAP
E380
E380
E380
E380
E380
FF80
FF80
E380
E380
E380
E380
E380
E380
ENDCHAR
STARTCHAR U+0049
ENCODING 73
SWIDTH 480 0
DWIDTH 10 0
BBX 7 13 2 0
BITMAP
FE
FE
38
38
38
38
38
38
38
38
38
FE
FE
ENDCHAR
STARTCHAR U+004a
ENCODING 74
SWIDTH 480 0
DWIDTH 10 0
BBX 9 13 1 0
BITMAP
1F80
1F80
0380
0380
0380
0380
0380
0380
0380
4380
E780
7F00
3E00
ENDCHAR
STARTCHAR U+004b
ENCODING 75
SWIDTH 480 0
DWIDTH 10 0
BBX 9 13 1 0
BITMAP
E380
E700
EE00
FC00
F800
FC00
FC00
EE00
EE00
E700
E700
E380
E380
ENDCHAR
STARTCHAR U+004c
ENCODING 76
SWIDTH 480 0
DWIDTH 10 0
BBX 9 13 1 0
BITMAP
E000
E000
E000
E000
E000
E000
E000
E000
E000
E000
E000
FF80
FF80
ENDCHAR
STARTCHAR U+004d
ENCODING 77
SWIDTH 480 0
DWIDTH 10 0
BBX 9 13 1 0
BITMAP
E380
E380
F780
F780
FF80
FF80
EB80
EB80
E380
E380
E380
E380
E380
ENDCHAR
STARTCHAR U+004e
ENCODING 78
SWIDTH 480 0
DWIDTH 10 0
BBX 9 13 1 0
BITMAP
E380
E380
F380
F380
FB80
FB80
FF80
EF80
EF80
E780
E780
E380
E380
ENDCHAR
STARTCHAR U+004f
ENCODING 79
SWIDTH 480 0
DWIDTH 10 0
BBX 9 13 1 0
BITMAP
3E00
7F00
F780
E380
E380
E380
E380
E380
E380
E380
F780
7F00
3E00
ENDCHAR
STARTCHAR U+0050
ENCODING 80
SWIDTH 480 0
DWIDTH 10 0
BBX 9 13 1 0
BITMAP
FE00
FF00
E780
E380
E380
E780
FF00
FE00
E000
E000
E000
E000
E000
ENDCHAR
STARTCHAR U+0051
ENCODING 81
SWIDTH 480 0
DWIDTH 10 0
BBX 9 16 1 -3
BITMAP
3E00
7F00
F780
E380
E380
E380
E380
E380
E380
E380
F780
7F00
3E00
1C00
0F80
0780
ENDCHAR
STARTCHAR U+0052
ENCODING 82
SWIDTH 480 0
DWIDTH 10 0
BBX 9 13 1 0
BITMAP
FE00
FF00
E780
E380
E380
E780
FF00
FE00
FC00
EE00
E700
E380
E180
ENDCHAR
STARTCHAR U+0053
ENCODING 83
SWIDTH 480 0
DWIDTH 10 0
BBX 9 13 1 0
BITMAP
3E00
7F00
F380
E100
F000
7800
3E00
0F00
0780
4380
E780
7F00
3E00
ENDCHAR
STARTCHAR U+0054
ENCODING 84
SWIDTH 480 0
DWIDTH 10 0
BBX 9 13 1 0
BITMAP
FF80
FF80
1C00
1C00
1C00
1C00
1C00
1C00
1C00
1C00
1C00
1C00
1C00
ENDCHAR
STARTCHAR U+0055
ENCODING 85
SWIDTH 480 0
DWIDTH 10 0
BBX 9 13 1 0
BITMAP
E380
E380
E380
E380
E380
E380
E380
E380
E380
E380
F780
7F00
3E00
ENDCHAR
STARTCHAR U+0056
ENCODING 86
SWIDTH 480 0
DWIDTH 10 0
BBX 9 13 1 0
BITMAP
E380
E380
E380
E380
E380
E380
E380
6300
7700
3600
3E00
1C00
1C00
ENDCHAR
STARTCHAR U+0057
ENCODING 87
SWIDTH 480 0
DWIDTH 10 0
BBX 9 13 1 0
BITMAP
E380
E380
E380
E380
E380
E380
E380
EB80
EB80
FF80
FF80
F780
6300
ENDCHAR
STARTCHAR U+0058
ENCODING 88
SWIDTH 480 0
DWIDTH 10 0
BBX 9 13 1 0
BITMAP
E380
E380
7700
7700
3E00
3E00
1C00
3E00
3E00
7700
7700
E380
E380
ENDCHAR
STARTCHAR U+0059
ENCODING 89
SWIDTH 480 0
DWIDTH 10 0
BBX 9 13 1 0
BITMAP
E380
E380
E380
E380
F780
7F00
3E00
1C00
1C00
1C00
1C00
1C00
1C00
ENDCHAR
STARTCHAR U+005a
ENCODING 90
SWIDTH 480 0
DWIDTH 10 0
BBX 9 13 1 0
BITMAP
FF80
FF80
0380
0700
0E00
0E00
1C00
3800
3800
7000
E000
FF80
FF80
ENDCHAR
STARTCHAR U+005b
ENCODING 91
SWIDTH 480 0
DWIDTH 10 0
BBX 7 17 2 -3
BITMAP
FE
FE
E0
E0
E0
E0
E0
E0
E0
E0
E0
E0
E0
E0
E0
FE
FE
ENDCHAR
STARTCHAR U+005c
ENCODING 92
SWIDTH 480 0
DWIDTH 10 0
BBX 9 16 1 -2
BITMAP
C000
E000
6000
7000
3000
3800
1800
1C00
0C00
0E00
0600
0700
0300
0380
0180
0180
ENDCHAR
STARTCHAR U+005d
ENCODING 93
SWIDTH 480 0
DWIDTH 10 0
BBX 7 17 1 -3
BITMAP
FE
FE
0E
0E
0E
0E
0E
0E
0E
0E
0E
0E
0E
0E
0E
FE
FE
ENDCHAR
STARTCHAR U+005e
ENCODING 94
SWIDTH 480 0
DWIDTH 10 0
BBX 8 5 1 8
BITMAP
18
3C
7E
E7
C3
ENDCHAR
STARTCHAR U+005f
ENCODING 95
SWIDTH 480 0
DWIDTH 10 0
BBX 9 3 1 -4
BITMAP
FF80
FF80
FF80
ENDCHAR
STARTCHAR U+0060
ENCODING 96
SWIDTH 480 0
DWIDTH 10 0
BBX 6 5 2 9
BITMAP
F0
70
38
18
0C
ENDCHAR
STARTCHAR U+0061
ENCODING 97
SWIDTH 480 0
DWIDTH 10 0
BBX 9 9 1 0
BITMAP
7E00
7F00
0380
3F80
7F80
E380
E780
FF80
7B80
ENDCHAR
STARTCHAR U+0062
ENCODING 98
SWIDTH 480 0
DWIDTH 10 0
BBX 9 13 1 0
BITMAP
E000
E000
E000
E000
EE00
FF00
F780
E380
E380
E380
F780
FF00
EE00
ENDCHAR
STARTCHAR U+0063
ENCODING 99
SWIDTH 480 0
DWIDTH 10 0
BBX 9 9 1 0
BITMAP
3F00
7F80
F180
E000
E000
E000
F180
7F80
3F00
ENDCHAR
STARTCHAR U+0064
ENCODING 100
SWIDTH 480 0
DWIDTH 10 0
BBX 9 13 1 0
BITMAP
0380
0380
0380
0380
3B80
7F80
F780
E380
E380
E380
F780
7F80
3B80
ENDCHAR
STARTCHAR U+0065
ENCODING 101
SWIDTH 480 0
DWIDTH 10 0
BBX 9 9 1 0
BITMAP
3E00
7F00
E380
FF80
FF80
E000
F180
7F80
3F00
ENDCHAR
STARTCHAR U+0066
ENCODING 102
SWIDTH 480 0
DWIDTH 10 0
BBX 9 13 1 0
BITMAP
1F00
3F80
7980
7000
7000
7000
FF00
FF00
7000
7000
7000
7000
7000
ENDCHAR
STARTCHAR U+0067
ENCODING 103
SWIDTH 480 0
DWIDTH 10 0
BBX 9 13 1 -4
BITMAP
3B80
7F80
F780
E380
E380
F780
7F80
3B80
0380
4380
E780
7F00
3E00
ENDCHAR
STARTCHAR U+0068
ENCODING 104
SWIDTH 480 0
DWIDTH 10 0
BBX 9 13 1 0
BITMAP
E000
E000
E000
E000
EE00
FF00
F780
E380
E380
E380
E380
E380
E380
ENDCHAR
STARTCHAR U+0069
ENCODING 105
SWIDTH 480 0
DWIDTH 10 0
BBX 5 13 2 0
BITMAP
38
38
38
00
F8
F8
38
38
38
38
38
38
38
ENDCHAR
STARTCHAR U+006a
ENCODING 106
SWIDTH 480 0
DWIDTH 10 0
BBX 8 17 1 -4
BITMAP
07
07
07
00
1F
1F
07
07
07
07
07
07
07
47
EF
7E
3C
ENDCHAR
STARTCHAR U+006b
ENCODING 107
SWIDTH 480 0
DWIDTH 10 0
BBX 9 13 1 0
BITMAP
E000
E000
E000
E000
E700
EE00
FC00
F800
F800
FC00
EE00
E700
E380
ENDCHAR
STARTCHAR U+006c
ENCODING 108
SWIDTH 480 0
DWIDTH 10 0
BBX 6 13 3 0
BITMAP
E0
E0
E0
E0
E0
E0
E0
E0
E0
E0
F0
7C
3C
ENDCHAR
STARTCHAR U+006d
ENCODING 109
SWIDTH 480 0
DWIDTH 10 0
BBX 9 9 1 0
BITMAP
DB00
FF80
FF80
EB80
EB80
EB80
EB80
EB80
E380
ENDCHAR
STARTCHAR U+006e
ENCODING 110
SWIDTH 480 0
DWIDTH 10 0
BBX 9 9 1 0
BITMAP
EE00
FF00
F780
E380
E380
E380
E380
E380
E380
ENDCHAR
STARTCHAR U+006f
ENCODING 111
SWIDTH 480 0
DWIDTH 10 0
BBX 9 9 1 0
BITMAP
3E00
7F00
F780
E380
E380
E380
F780
7F00
3E00
ENDCHAR
STARTCHAR U+0070
ENCODING 112
SWIDTH 480 0
DWIDTH 10 0
BBX 9 13 1 -4
BITMAP
EE00
FF00
F780
E380
E380
F780
FF00
EE00
E000
E000
E000
E000
E000
ENDCHAR
STARTCHAR U+0071
ENCODING 113
SWIDTH 480 0
DWIDTH 10 0
BBX 9 13 1 -4
BITMAP
3B80
7F80
F780
E380
E380
F780
7F80
3B80
0380
0380
0380
0380
0380
ENDCHAR
STARTCHAR U+0072
ENCODING 114
SWIDTH 480 0
DWIDTH 10 0
BBX 9 9 1 0
BITMAP
EF00
FF80
F180
E000
E000
E000
E000
E000
E000
ENDCHAR
STARTCHAR U+0073
ENCODING 115
SWIDTH 480 0
DWIDTH 10 0
BBX 9 9 1 0
BITMAP
7F00
FF80
E180
FC00
7F00
0F80
C380
FF80
7F00
ENDCHAR
STARTCHAR U+0074
ENCODING 116
SWIDTH 480 0
DWIDTH 10 0
BBX 9 12 1 0
BITMAP
7000
7000
7000
FF00
FF00
7000
7000
7000
7000
7980
3F80
1F00
ENDCHAR
STARTCHAR U+0075
ENCODING 117
SWIDTH 480 0
DWIDTH 10 0
BBX 9 9 1 0
BITMAP
E380
E380
E380
E380
E380
E380
F780
7F80
3B80
ENDCHAR
STARTCHAR U+0076
ENCODING 118
SWIDTH 480 0
DWIDTH 10 0
BBX 9 9 1 0
BITMAP
E380
E380
E380
6300
7700
3600
3E00
1C00
1C00
ENDCHAR
STARTCHAR U+0077
ENCODING 119
SWIDTH 480 0
DWIDTH 10 0
BBX 9 9 1 0
BITMAP
E380
E380
E380
EB80
EB80
FF80
FF80
F780
6300
ENDCHAR
STARTCHAR U+0078
ENCODING 120
SWIDTH 480 0
DWIDTH 10 0
BBX 9 9 1 0
BITMAP
E380
E380
7700
3E00
1C00
3E00
7700
E380
E380
ENDCHAR
STARTCHAR U+0079
ENCODING 121
SWIDTH 480 0
DWIDTH 10 0
BBX 9 13 1 -4
BITMAP
E380
E380
E380
E380
E380
F780
7F80
3B80
0380
4380
E780
7F00
3E00
ENDCHAR
STARTCHAR U+007a
ENCODING 122
SWIDTH 480 0
DWIDTH 10 0
BBX 9 9 1 0
BITMAP
FF80
FF80
0700
0E00
1C00
3800
7000
FF80
FF80
ENDCHAR
STARTCHAR U+007b
ENCODING 123
SWIDTH 480 0
DWIDTH 10 0
BBX 8 17 1 -3
BITMAP
0F
1F
1C
1C
1C
1C
1C
78
F0
78
1C
1C
1C
1C
1C
1F
0F
ENDCHAR
STARTCHAR U+007c
ENCODING 124
SWIDTH 480 0
DWIDTH 10 0
BBX 3 16 4 -2
BITMAP
E0
E0
E0
E0
E0
E0
E0
E0
E0
E0
E0
E0
E0
E0
E0
E0
ENDCHAR
STARTCHAR U+007d
ENCODING 125
SWIDTH 480 0
DWIDTH 10 0
BBX 8 17 1 -3
BITMAP
F0
F8
38
38
38
38
38
1E
0F
1E
38
38
38
38
38
F8
F0
ENDCHAR
STARTCHAR U+007e
ENCODING 126
SWIDTH 480 0
DWIDTH 10 0
BBX 9 5 1 7
BITMAP
7380
FB80
FF80
EF80
E700
ENDCHAR
STARTCHAR nil
ENCODING 127
SWIDTH 480 0
DWIDTH 10 0
BBX 8 18 1 -3
BITMAP
FF
81
81
81
81
81
81
81
81
81
81
81
81
81
81
81
81
FF
ENDCHAR
STARTCHAR nil
ENCODING 128
SWIDTH 480 0
DWIDTH 10 0
BBX 8 18 1 -3
BITMAP
FF
81
81
81
81
81
81
81
81
81
81
81
81
81
81
81
81
FF
ENDCHAR
STARTCHAR nil
ENCODING 129
SWIDTH 480 0
DWIDTH 10 0
BBX 8 18 1 -3
BITMAP
FF
81
81
81
81
81
81
81
81
81
81
81
81
81
81
81
81
FF
ENDCHAR
STARTCHAR nil
ENCODING 130
SWIDTH 480 0
DWIDTH 10 0
BBX 8 18 1 -3
BITMAP
FF
81
81
81
81
81
81
81
81
81
81
81
81
81
81
81
81
FF
ENDCHAR
STARTCHAR nil
ENCODING 131
SWIDTH 480 0
DWIDTH 10 0
BBX 8 18 1 -3
BITMAP
FF
81
81
81
81
81
81
81
81
81
81
81
81
81
81
81
81
FF
ENDCHAR
STARTCHAR nil
ENCODING 132
SWIDTH 480 0
DWIDTH 10 0
BBX 8 18 1 -3
BITMAP
FF
81
81
81
81
81
81
81
81
81
81
81
81
81
81
81
81
FF
ENDCHAR
STARTCHAR nil
ENCODING 133
SWIDTH 480 0
DWIDTH 10 0
BBX 8 18 1 -3
BITMAP
FF
81
81
81
81
81
81
81
81
81
81
81
81
81
81
81
81
FF
ENDCHAR
STARTCHAR nil
ENCODING 134
SWIDTH 480 0
DWIDTH 10 0
BBX 8 18 1 -3
BITMAP
FF
81
81
81
81
81
81
81
81
81
81
81
81
81
81
81
81
FF
ENDCHAR
STARTCHAR nil
ENCODING 135
SWIDTH 480 0
DWIDTH 10 0
BBX 8 18 1 -3
BITMAP
FF
81
81
81
81
81
81
81
81
81
81
81
81
81
81
81
81
FF
ENDCHAR
STARTCHAR nil
ENCODING 136
SWIDTH 480 0
DWIDTH 10 0
BBX 8 18 1 -3
BITMAP
FF
81
81
81
81
81
81
81
81
81
81
81
81
81
81
81
81
FF
ENDCHAR
STARTCHAR nil
ENCODING 137
SWIDTH 480 0
DWIDTH 10 0
BBX 8 18 1 -3
BITMAP
FF
81
81
81
81
81
81
81
81
81
81
81
81
81
81
81
81
FF
ENDCHAR
STARTCHAR nil
ENCODING 138
SWIDTH 480 0
DWIDTH 10 0
BBX 8 18 1 -3
BITMAP
FF
81
81
81
81
81
81
81
81
81
81
81
81
81
81
81
81
FF
ENDCHAR
STARTCHAR nil
ENCODING 139
SWIDTH 480 0
DWIDTH 10 0
BBX 8 18 1 -3
BITMAP
FF
81
81
81
81
81
81
81
81
81
81
81
81
81
81
81
81
FF
ENDCHAR
STARTCHAR nil
ENCODING 140
SWIDTH 480 0
DWIDTH 10 0
BBX 8 18 1 -3
BITMAP
FF
81
81
81
81
81
81
81
81
81
81
81
81
81
81
81
81
FF
ENDCHAR
STARTCHAR nil
ENCODING 141
SWIDTH 480 0
DWIDTH 10 0
BBX 8 18 1 -3
BITMAP
FF
81
81
81
81
81
81
81
81
81
81
81
81
81
81
81
81
FF
ENDCHAR
STARTCHAR nil
ENCODING 142
SWIDTH 480 0
DWIDTH 10 0
BBX 8 18 1 -3
BITMAP
FF
81
81
81
81
81
81
81
81
81
81
81
81
81
81
81
81
FF
ENDCHAR
STARTCHAR nil
ENCODING 143
SWIDTH 480 0
DWIDTH 10 0
BBX 8 18 1 -3
BITMAP
FF
81
81
81
81
81
81
81
81
81
81
81
81
81
81
81
81
FF
ENDCHAR
STARTCHAR nil
ENCODING 144
SWIDTH 480 0
DWIDTH 10 0
BBX 8 18 1 -3
BITMAP
FF
81
81
81
81
81
81
81
81
81
81
81
81
81
81
81
81
FF
ENDCHAR
STARTCHAR nil
ENCODING 145
SWIDTH 480 0
DWIDTH 10 0
BBX 8 18 1 -3
BITMAP
FF
81
81
81
81
81
81
81
81
81
81
81
81
81
81
81
81
FF
ENDCHAR
STARTCHAR nil
ENCODING 146
SWIDTH 480 0
DWIDTH 10 0
BBX 8 18 1 -3
BITMAP
FF
81
81
81
81
81
81
81
81
81
81
81
81
81
81
81
81
FF
ENDCHAR
STARTCHAR nil
ENCODING 147
SWIDTH 480 0
DWIDTH 10 0
BBX 8 18 1 -3
BITMAP
FF
81
81
81
81
81
81
81
81
81
81
81
81
81
81
81
81
FF
ENDCHAR
STARTCHAR nil
ENCODING 148
SWIDTH 480 0
DWIDTH 10 0
BBX 8 18 1 -3
BITMAP
FF
81
81
81
81
81
81
81
81
81
81
81
81
81
81
81
81
FF
ENDCHAR
STARTCHAR nil
ENCODING 149
SWIDTH 480 0
DWIDTH 10 0
BBX 8 18 1 -3
BITMAP
FF
81
81
81
81
81
81
81
81
81
81
81
81
81
81
81
81
FF
ENDCHAR
STARTCHAR nil
ENCODING 150
SWIDTH 480 0
DWIDTH 10 0
BBX 8 18 1 -3
BITMAP
FF
81
81
81
81
81
81
81
81
81
81
81
81
81
81
81
81
FF
ENDCHAR
STARTCHAR nil
ENCODING 151
SWIDTH 480 0
DWIDTH 10 0
BBX 8 18 1 -3
BITMAP
FF
81
81
81
81
81
81
81
81
81
81
81
81
81
81
81
81
FF
ENDCHAR
STARTCHAR nil
ENCODING 152
SWIDTH 480 0
DWIDTH 10 0
BBX 8 18 1 -3
BITMAP
FF
81
81
81
81
81
81
81
81
81
81
81
81
81
81
81
81
FF
ENDCHAR
STARTCHAR nil
ENCODING 153
SWIDTH 480 0
DWIDTH 10 0
BBX 8 18 1 -3
BITMAP
FF
81
81
81
81
81
81
81
81
81
81
81
81
81
81
81
81
FF
ENDCHAR
STARTCHAR nil
ENCODING 154
SWIDTH 480 0
DWIDTH 10 0
BBX 8 18 1 -3
BITMAP
FF
81
81
81
81
81
81
81
81
81
81
81
81
81
81
81
81
FF
ENDCHAR
STARTCHAR nil
ENCODING 155
SWIDTH 480 0
DWIDTH 10 0
BBX 8 18 1 -3
BITMAP
FF
81
81
81
81
81
81
81
81
81
81
81
81
81
81
81
81
FF
ENDCHAR
STARTCHAR nil
ENCODING 156
SWIDTH 480 0
DWIDTH 10 0
BBX 8 18 1 -3
BITMAP
FF
81
81
81
81
81
81
81
81
81
81
81
81
81
81
81
81
FF
ENDCHAR
STARTCHAR nil
ENCODING 157
SWIDTH 480 0
DWIDTH 10 0
BBX 8 18 1 -3
BITMAP
FF
81
81
81
81
81
81
81
81
81
81
81
81
81
81
81
81
FF
ENDCHAR
STARTCHAR nil
ENCODING 158
SWIDTH 480 0
DWIDTH 10 0
BBX 8 18 1 -3
BITMAP
FF
81
81
81
81
81
81
81
81
81
81
81
81
81
81
81
81
FF
ENDCHAR
STARTCHAR nil
ENCODING 159
SWIDTH 480 0
DWIDTH 10 0
BBX 8 18 1 -3
BITMAP
FF
81
81
81
81
81
81
81
81
81
81
81
81
81
81
81
81
FF
ENDCHAR
STARTCHAR U+00a0
ENCODING 160
SWIDTH 480 0
DWIDTH 10 0
BBX 1 1 9 -4
BITMAP
00
ENDCHAR
STARTCHAR U+00a1
ENCODING 161
SWIDTH 480 0
DWIDTH 10 0
BBX 3 13 4 -4
BITMAP
E0
E0
E0
00
E0
E0
E0
E0
E0
E0
E0
E0
E0
ENDCHAR
STARTCHAR U+00a2
ENCODING 162
SWIDTH 480 0
DWIDTH 10 0
BBX 9 12 1 0
BITMAP
0C00
0C00
3F00
7F80
F180
E000
E000
F180
7F80
3F00
0C00
0C00
ENDCHAR
STARTCHAR U+00a3
ENCODING 163
SWIDTH 480 0
DWIDTH 10 0
BBX 9 13 1 0
BITMAP
3E00
7F00
7300
7000
7000
7000
FC00
FC00
7000
7000
7000
FF80
FF80
ENDCHAR
STARTCHAR U+00a4
ENCODING 164
SWIDTH 480 0
DWIDTH 10 0
BBX 9 9 1 0
BITMAP
C180
FF80
7F00
6300
6300
6300
7F00
FF80
C180
ENDCHAR
STARTCHAR U+00a5
ENCODING 165
SWIDTH 480 0
DWIDTH 10 0
BBX 9 13 1 0
BITMAP
E380
E380
7700
7700
3E00
3E00
FF80
FF80
1C00
FF80
FF80
1C00
1C00
ENDCHAR
STARTCHAR U+00a6
ENCODING 166
SWIDTH 480 0
DWIDTH 10 0
BBX 3 14 4 -1
BITMAP
E0
E0
E0
E0
E0
E0
00
E0
E0
E0
E0
E0
E0
E0
ENDCHAR
STARTCHAR U+00a7
ENCODING 167
SWIDTH 480 0
DWIDTH 10 0
BBX 8 15 1 -2
BITMAP
7F
FF
E0
70
3C
7E
E7
E7
E7
7E
3C
0E
07
FF
FE
ENDCHAR
STARTCHAR U+00a8
ENCODING 168
SWIDTH 480 0
DWIDTH 10 0
BBX 7 3 2 10
BITMAP
C6
C6
C6
ENDCHAR
STARTCHAR U+00a9
ENCODING 169
SWIDTH 480 0
DWIDTH 10 0
BBX 9 13 1 1
BITMAP
3E00
4100
8080
9C80
BE80
B680
B080
B680
BE80
9C80
8080
4100
3E00
ENDCHAR
STARTCHAR U+00aa
ENCODING 170
SWIDTH 480 0
DWIDTH 10 0
BBX 7 10 2 3
BITMAP
7C
7E
0E
7E
EE
FE
76
00
FE
FE
ENDCHAR
STARTCHAR U+00ab
ENCODING 171
SWIDTH 480 0
DWIDTH 10 0
BBX 10 9 0 1
BITMAP
0880
1DC0
3B80
7700
EE00
7700
3B80
1DC0
0880
ENDCHAR
STARTCHAR U+00ac
ENCODING 172
SWIDTH 480 0
DWIDTH 10 0
BBX 9 6 1 1
BITMAP
FF80
FF80
0380
0380
0380
0380
ENDCHAR
STARTCHAR U+00ad
ENCODING 173
SWIDTH 480 0
DWIDTH 10 0
BBX 5 3 3 4
BITMAP
F8
F8
F8
ENDCHAR
STARTCHAR U+00ae
ENCODING 174
SWIDTH 480 0
DWIDTH 10 0
BBX 9 13 1 1
BITMAP
3E00
4100
8080
BC80
BE80
B680
B080
B080
B080
B080
8080
4100
3E00
ENDCHAR
STARTCHAR U+00af
ENCODING 175
SWIDTH 480 0
DWIDTH 10 0
BBX 9 2 1 11
BITMAP
FF80
FF80
ENDCHAR
STARTCHAR U+00b0
ENCODING 176
SWIDTH 480 0
DWIDTH 10 0
BBX 6 6 2 7
BITMAP
78
FC
CC
CC
FC
78
ENDCHAR
STARTCHAR U+00b1
ENCODING 177
SWIDTH 480 0
DWIDTH 10 0
BBX 9 11 1 -1
BITMAP
1C00
1C00
1C00
FF80
FF80
1C00
1C00
1C00
0000
FF80
FF80
ENDCHAR
STARTCHAR U+00b2
ENCODING 178
SWIDTH 480 0
DWIDTH 10 0
BBX 7 7 2 6
BITMAP
7C
FE
4E
3C
70
FE
FE
ENDCHAR
STARTCHAR U+00b3
ENCODING 179
SWIDTH 480 0
DWIDTH 10 0
BBX 7 7 2 6
BITMAP
FE
FC
18
3C
0E
FE
7C
ENDCHAR
STARTCHAR U+00b4
ENCODING 180
SWIDTH 480 0
DWIDTH 10 0
BBX 5 3 3 10
BITMAP
38
70
C0
ENDCHAR
STARTCHAR U+00b5
ENCODING 181
SWIDTH 480 0
DWIDTH 10 0
BBX 9 11 1 -2
BITMAP
E700
E700
E700
E700
E700
E700
F700
FF80
ED80
E000
E000
ENDCHAR
STARTCHAR U+00b6
ENCODING 182
SWIDTH 480 0
DWIDTH 10 0
BBX 9 12 1 0
BITMAP
3F80
7F80
FB00
FB00
FB00
FB00
7B00
3B00
1B00
1B00
1B00
1B00
ENDCHAR
STARTCHAR U+00b7
ENCODING 183
SWIDTH 480 0
DWIDTH 10 0
BBX 4 4 3 4
BITMAP
60
F0
F0
60
ENDCHAR
STARTCHAR U+00b8
ENCODING 184
SWIDTH 480 0
DWIDTH 10 0
BBX 5 5 4 -4
BITMAP
60
70
38
F8
F0
ENDCHAR
STARTCHAR U+00b9
ENCODING 185
SWIDTH 480 0
DWIDTH 10 0
BBX 5 7 2 6
BITMAP
18
38
78
F8
38
38
38
ENDCHAR
STARTCHAR U+00ba
ENCODING 186
SWIDTH 480 0
DWIDTH 10 0
BBX 8 10 1 3
BITMAP
3C
7E
E7
E7
E7
7E
3C
00
FF
FF
ENDCHAR
STARTCHAR U+00bb
ENCODING 187
SWIDTH 480 0
DWIDTH 10 0
BBX 10 9 0 1
BITMAP
4400
EE00
7700
3B80
1DC0
3B80
7700
EE00
4400
ENDCHAR
STARTCHAR U+00bc
ENCODING 188
SWIDTH 480 0
DWIDTH 10 0
BBX 10 14 0 -1
BITMAP
1800
3800
7800
F800
3800
3800
3800
0380
0780
0F80
1BC0
1FC0
0380
0380
ENDCHAR
STARTCHAR U+00bd
ENCODING 189
SWIDTH 480 0
DWIDTH 10 0
BBX 10 14 0 -1
BITMAP
1800
3800
7800
F800
3800
3800
3800
0F80
1FC0
09C0
0780
0E00
1FC0
1FC0
ENDCHAR
STARTCHAR U+00be
ENCODING 190
SWIDTH 480 0
DWIDTH 10 0
BBX 10 14 0 -1
BITMAP
FE00
FC00
1800
3C00
0E00
FE00
7C00
0380
0780
0F80
1BC0
1FC0
0380
0380
ENDCHAR
STARTCHAR U+00bf
ENCODING 191
SWIDTH 480 0
DWIDTH 10 0
BBX 7 13 2 -4
BITMAP
1C
1C
1C
00
1C
1C
1C
1C
38
70
E0
FE
7E
ENDCHAR
STARTCHAR U+00c0
ENCODING 192
SWIDTH 480 0
DWIDTH 10 0
BBX 9 15 1 0
BITMAP
3800
1C00
0600
0000
3E00
7F00
F780
E380
E380
FF80
FF80
E380
E380
E380
E380
ENDCHAR
STARTCHAR U+00c1
ENCODING 193
SWIDTH 480 0
DWIDTH 10 0
BBX 9 15 1 0
BITMAP
0E00
1C00
3000
0000
3E00
7F00
F780
E380
E380
FF80
FF80
E380
E380
E380
E380
ENDCHAR
STARTCHAR U+00c2
ENCODING 194
SWIDTH 480 0
DWIDTH 10 0
BBX 9 15 1 0
BITMAP
1C00
3600
6300
0000
3E00
7F00
F780
E380
E380
FF80
FF80
E380
E380
E380
E380
ENDCHAR
STARTCHAR U+00c3
ENCODING 195
SWIDTH 480 0
DWIDTH 10 0
BBX 9 15 1 0
BITMAP
7180
DD80
C700
0000
3E00
7F00
F780
E380
E380
FF80
FF80
E380
E380
E380
E380
ENDCHAR
STARTCHAR U+00c4
ENCODING 196
SWIDTH 480 0
DWIDTH 10 0
BBX 9 15 1 0
BITMAP
6300
6300
6300
0000
3E00
7F00
F780
E380
E380
FF80
FF80
E380
E380
E380
E380
ENDCHAR
STARTCHAR U+00c5
ENCODING 197
SWIDTH 480 0
DWIDTH 10 0
BBX 9 15 1 0
BITMAP
3E00
6300
6300
3E00
3E00
7F00
F780
E380
E380
FF80
FF80
E380
E380
E380
E380
ENDCHAR
STARTCHAR U+00c6
ENCODING 198
SWIDTH 480 0
DWIDTH 10 0
BBX 9 13 1 0
BITMAP
3F80
7F80
F700
E700
E700
E780
FF80
FF00
E700
E700
E700
E780
E780
ENDCHAR
STARTCHAR U+00c7
ENCODING 199
SWIDTH 480 0
DWIDTH 10 0
BBX 9 17 1 -4
BITMAP
3E00
7F00
F380
E100
E000
E000
E000
E000
E000
E100
F380
7F00
3E00
0E00
0700
1F00
1E00
ENDCHAR
STARTCHAR U+00c8
ENCODING 200
SWIDTH 480 0
DWIDTH 10 0
BBX 9 15 1 0
BITMAP
3800
1C00
0600
0000
FF80
FF80
E000
E000
FE00
FE00
E000
E000
E000
FF80
FF80
ENDCHAR
STARTCHAR U+00c9
ENCODING 201
SWIDTH 480 0
DWIDTH 10 0
BBX 9 15 1 0
BITMAP
0E00
1C00
3000
0000
FF80
FF80
E000
E000
FE00
FE00
E000
E000
E000
FF80
FF80
ENDCHAR
STARTCHAR U+00ca
ENCODING 202
SWIDTH 480 0
DWIDTH 10 0
BBX 9 15 1 0
BITMAP
1C00
3600
6300
0000
FF80
FF80
E000
E000
FE00
FE00
E000
E000
E000
FF80
FF80
ENDCHAR
STARTCHAR U+00cb
ENCODING 203
SWIDTH 480 0
DWIDTH 10 0
BBX 9 15 1 0
BITMAP
6300
6300
6300
0000
FF80
FF80
E000
E000
FF00
FF00
E000
E000
E000
FF80
FF80
ENDCHAR
STARTCHAR U+00cc
ENCODING 204
SWIDTH 480 0
DWIDTH 10 0
BBX 7 15 2 0
BITMAP
70
38
0C
00
FE
FE
38
38
38
38
38
38
38
FE
FE
ENDCHAR
STARTCHAR U+00cd
ENCODING 205
SWIDTH 480 0
DWIDTH 10 0
BBX 7 15 2 0
BITMAP
1C
38
60
00
FE
FE
38
38
38
38
38
38
38
FE
FE
ENDCHAR
STARTCHAR U+00ce
ENCODING 206
SWIDTH 480 0
DWIDTH 10 0
BBX 7 15 2 0
BITMAP
38
6C
C6
00
FE
FE
38
38
38
38
38
38
38
FE
FE
ENDCHAR
STARTCHAR U+00cf
ENCODING 207
SWIDTH 480 0
DWIDTH 10 0
BBX 7 15 2 0
BITMAP
C6
C6
C6
00
FE
FE
38
38
38
38
38
38
38
FE
FE
ENDCHAR
STARTCHAR U+00d0
ENCODING 208
SWIDTH 480 0
DWIDTH 10 0
BBX 10 13 0 0
BITMAP
7E00
7F00
7380
71C0
71C0
71C0
FDC0
FDC0
71C0
71C0
7380
7F00
7E00
ENDCHAR
STARTCHAR U+00d1
ENCODING 209
SWIDTH 480 0
DWIDTH 10 0
BBX 9 15 1 0
BITMAP
7180
DD80
C700
0000
E380
F380
F380
FB80
FB80
FF80
EF80
EF80
E780
E780
E380
ENDCHAR
STARTCHAR U+00d2
ENCODING 210
SWIDTH 480 0
DWIDTH 10 0
BBX 9 15 1 0
BITMAP
3800
1C00
0600
0000
3E00
7F00
F780
E380
E380
E380
E380
E380
F780
7F00
3E00
ENDCHAR
STARTCHAR U+00d3
ENCODING 211
SWIDTH 480 0
DWIDTH 10 0
BBX 9 15 1 0
BITMAP
0E00
1C00
3000
0000
3E00
7F00
F780
E380
E380
E380
E380
E380
F780
7F00
3E00
ENDCHAR
STARTCHAR U+00d4
ENCODING 212
SWIDTH 480 0
DWIDTH 10 0
BBX 9 15 1 0
BITMAP
1C00
3600
6300
0000
3E00
7F00
F780
E380
E380
E380
E380
E380
F780
7F00
3E00
ENDCHAR
STARTCHAR U+00d5
ENCODING 213
SWIDTH 480 0
DWIDTH 10 0
BBX 9 15 1 0
BITMAP
7180
DD80
C700
0000
3E00
7F00
F780
E380
E380
E380
E380
E380
F780
7F00
3E00
ENDCHAR
STARTCHAR U+00d6
ENCODING 214
SWIDTH 480 0
DWIDTH 10 0
BBX 9 15 1 0
BITMAP
6300
6300
6300
0000
3E00
7F00
F780
E380
E380
E380
E380
E380
F780
7F00
3E00
ENDCHAR
STARTCHAR U+00d7
ENCODING 215
SWIDTH 480 0
DWIDTH 10 0
BBX 8 8 1 2
BITMAP
42
E7
7E
3C
3C
7E
E7
42
ENDCHAR
STARTCHAR U+00d8
ENCODING 216
SWIDTH 480 0
DWIDTH 10 0
BBX 9 15 1 -1
BITMAP
0100
3F00
7F00
F780
E780
E780
EB80
EB80
EB80
F380
F380
F780
7F00
7E00
4000
ENDCHAR
STARTCHAR U+00d9
ENCODING 217
SWIDTH 480 0
DWIDTH 10 0
BBX 9 15 1 0
BITMAP
3800
1C00
0600
0000
E380
E380
E380
E380
E380
E380
E380
E380
F780
7F00
3E00
ENDCHAR
STARTCHAR U+00da
ENCODING 218
SWIDTH 480 0
DWIDTH 10 0
BBX 9 15 1 0
BITMAP
0E00
1C00
3000
0000
E380
E380
E380
E380
E380
E380
E380
E380
F780
7F00
3E00
ENDCHAR
STARTCHAR U+00db
ENCODING 219
SWIDTH 480 0
DWIDTH 10 0
BBX 9 15 1 0
BITMAP
1C00
3600
6300
0000
E380
E380
E380
E380
E380
E380
E380
E380
F780
7F00
3E00
ENDCHAR
STARTCHAR U+00dc
ENCODING 220
SWIDTH 480 0
DWIDTH 10 0
BBX 9 15 1 0
BITMAP
6300
6300
6300
0000
E380
E380
E380
E380
E380
E380
E380
E380
F780
7F00
3E00
ENDCHAR
STARTCHAR U+00dd
ENCODING 221
SWIDTH 480 0
DWIDTH 10 0
BBX 9 15 1 0
BITMAP
0E00
1C00
3000
0000
E380
E380
E380
F780
7F00
3E00
1C00
1C00
1C00
1C00
1C00
ENDCHAR
STARTCHAR U+00de
ENCODING 222
SWIDTH 480 0
DWIDTH 10 0
BBX 9 13 1 0
BITMAP
E000
E000
E000
FE00
FF00
E780
E380
E780
FF00
FE00
E000
E000
E000
ENDCHAR
STARTCHAR U+00df
ENCODING 223
SWIDTH 480 0
DWIDTH 10 0
BBX 9 15 1 -2
BITMAP
3E00
7F00
F300
E300
E600
EC00
EC00
EE00
E700
E380
E380
EF80
EF00
E000
E000
ENDCHAR
STARTCHAR U+00e0
ENCODING 224
SWIDTH 480 0
DWIDTH 10 0
BBX 9 13 1 0
BITMAP
3800
1C00
0600
0000
7E00
7F00
0380
3F80
7F80
E380
E780
FF80
7B80
ENDCHAR
STARTCHAR U+00e1
ENCODING 225
SWIDTH 480 0
DWIDTH 10 0
BBX 9 13 1 0
BITMAP
0E00
1C00
3000
0000
7E00
7F00
0380
3F80
7F80
E380
E780
FF80
7B80
ENDCHAR
STARTCHAR U+00e2
ENCODING 226
SWIDTH 480 0
DWIDTH 10 0
BBX 9 13 1 0
BITMAP
1C00
3600
6300
0000
7E00
7F00
0380
3F80
7F80
E380
E780
FF80
7B80
ENDCHAR
STARTCHAR U+00e3
ENCODING 227
SWIDTH 480 0
DWIDTH 10 0
BBX 9 13 1 0
BITMAP
7180
DD80
C700
0000
7E00
7F00
0380
3F80
7F80
E380
E780
FF80
7B80
ENDCHAR
STARTCHAR U+00e4
ENCODING 228
SWIDTH 480 0
DWIDTH 10 0
BBX 9 13 1 0
BITMAP
6300
6300
6300
0000
7E00
7F00
0380
3F80
7F80
E380
E780
FF80
7B80
ENDCHAR
STARTCHAR U+00e5
ENCODING 229
SWIDTH 480 0
DWIDTH 10 0
BBX 9 14 1 0
BITMAP
3E00
6300
6300
3E00
0000
7E00
7F00
0380
3F80
7F80
E380
E780
FF80
7B80
ENDCHAR
STARTCHAR U+00e6
ENCODING 230
SWIDTH 480 0
DWIDTH 10 0
BBX 9 9 1 0
BITMAP
7700
7F80
1D80
3F80
7F80
DC00
DD80
FF80
7700
ENDCHAR
STARTCHAR U+00e7
ENCODING 231
SWIDTH 480 0
DWIDTH 10 0
BBX 9 13 1 -4
BITMAP
3F00
7F80
F180
E000
E000
E000
F180
7F80
3F00
0E00
0700
1F00
1E00
ENDCHAR
STARTCHAR U+00e8
ENCODING 232
SWIDTH 480 0
DWIDTH 10 0
BBX 9 13 1 0
BITMAP
3800
1C00
0600
0000
3E00
7F00
E380
FF80
FF80
E000
F180
7F80
3F00
ENDCHAR
STARTCHAR U+00e9
ENCODING 233
SWIDTH 480 0
DWIDTH 10 0
BBX 9 13 1 0
BITMAP
0E00
1C00
3000
0000
3E00
7F00
E380
FF80
FF80
E000
F180
7F80
3F00
ENDCHAR
STARTCHAR U+00ea
ENCODING 234
SWIDTH 480 0
DWIDTH 10 0
BBX 9 13 1 0
BITMAP
1C00
3600
6300
0000
3E00
7F00
E380
FF80
FF80
E000
F180
7F80
3F00
ENDCHAR
STARTCHAR U+00eb
ENCODING 235
SWIDTH 480 0
DWIDTH 10 0
BBX 9 13 1 0
BITMAP
6300
6300
6300
0000
3E00
7F00
E380
FF80
FF80
E000
F180
7F80
3F00
ENDCHAR
STARTCHAR U+00ec
ENCODING 236
SWIDTH 480 0
DWIDTH 10 0
BBX 5 13 2 0
BITMAP
E0
70
18
00
F8
F8
38
38
38
38
38
38
38
ENDCHAR
STARTCHAR U+00ed
ENCODING 237
SWIDTH 480 0
DWIDTH 10 0
BBX 6 13 2 0
BITMAP
1C
38
60
00
F8
F8
38
38
38
38
38
38
38
ENDCHAR
STARTCHAR U+00ee
ENCODING 238
SWIDTH 480 0
DWIDTH 10 0
BBX 7 13 2 0
BITMAP
38
6C
C6
00
F8
F8
38
38
38
38
38
38
38
ENDCHAR
STARTCHAR U+00ef
ENCODING 239
SWIDTH 480 0
DWIDTH 10 0
BBX 7 13 2 0
BITMAP
C6
C6
C6
00
F8
F8
38
38
38
38
38
38
38
ENDCHAR
STARTCHAR U+00f0
ENCODING 240
SWIDTH 480 0
DWIDTH 10 0
BBX 9 13 1 0
BITMAP
E200
7E00
3800
FC00
8E00
3F00
7F80
F380
E380
E380
F780
7F00
3E00
ENDCHAR
STARTCHAR U+00f1
ENCODING 241
SWIDTH 480 0
DWIDTH 10 0
BBX 9 13 1 0
BITMAP
7180
DD80
C700
0000
EE00
FF00
F780
E380
E380
E380
E380
E380
E380
ENDCHAR
STARTCHAR U+00f2
ENCODING 242
SWIDTH 480 0
DWIDTH 10 0
BBX 9 13 1 0
BITMAP
3800
1C00
0600
0000
3E00
7F00
F780
E380
E380
E380
F780
7F00
3E00
ENDCHAR
STARTCHAR U+00f3
ENCODING 243
SWIDTH 480 0
DWIDTH 10 0
BBX 9 13 1 0
BITMAP
0E00
1C00
3000
0000
3E00
7F00
F780
E380
E380
E380
F780
7F00
3E00
ENDCHAR
STARTCHAR U+00f4
ENCODING 244
SWIDTH 480 0
DWIDTH 10 0
BBX 9 13 1 0
BITMAP
1C00
3600
6300
0000
3E00
7F00
F780
E380
E380
E380
F780
7F00
3E00
ENDCHAR
STARTCHAR U+00f5
ENCODING 245
SWIDTH 480 0
DWIDTH 10 0
BBX 9 13 1 0
BITMAP
7180
DD80
C700
0000
3E00
7F00
F780
E380
E380
E380
F780
7F00
3E00
ENDCHAR
STARTCHAR U+00f6
ENCODING 246
SWIDTH 480 0
DWIDTH 10 0
BBX 9 13 1 0
BITMAP
6300
6300
6300
0000
3E00
7F00
F780
E380
E380
E380
F780
7F00
3E00
ENDCHAR
STARTCHAR U+00f7
ENCODING 247
SWIDTH 480 0
DWIDTH 10 0
BBX 9 10 1 1
BITMAP
1C00
1C00
1C00
0000
FF80
FF80
0000
1C00
1C00
1C00
ENDCHAR
STARTCHAR U+00f8
ENCODING 248
SWIDTH 480 0
DWIDTH 10 0
BBX 9 11 1 -1
BITMAP
0100
3F00
7F00
F780
E780
EB80
F380
F780
7F00
7E00
4000
ENDCHAR
STARTCHAR U+00f9
ENCODING 249
SWIDTH 480 0
DWIDTH 10 0
BBX 9 13 1 0
BITMAP
3800
1C00
0600
0000
E380
E380
E380
E380
E380
E380
F780
7F80
3B80
ENDCHAR
STARTCHAR U+00fa
ENCODING 250
SWIDTH 480 0
DWIDTH 10 0
BBX 9 13 1 0
BITMAP
0E00
1C00
3000
0000
E380
E380
E380
E380
E380
E380
F780
7F80
3B80
ENDCHAR
STARTCHAR U+00fb
ENCODING 251
SWIDTH 480 0
DWIDTH 10 0
BBX 9 13 1 0
BITMAP
1C00
3600
6300
0000
E380
E380
E380
E380
E380
E380
F780
7F80
3B80
ENDCHAR
STARTCHAR U+00fc
ENCODING 252
SWIDTH 480 0
DWIDTH 10 0
BBX 9 13 1 0
BITMAP
6300
6300
6300
0000
E380
E380
E380
E380
E380
E380
F780
7F80
3B80
ENDCHAR
STARTCHAR U+00fd
ENCODING 253
SWIDTH 480 0
DWIDTH 10 0
BBX 9 17 1 -4
BITMAP
0E00
1C00
3000
0000
E380
E380
E380
E380
E380
F780
7F80
3B80
0380
4380
E780
7F00
3E00
ENDCHAR
STARTCHAR U+00fe
ENCODING 254
SWIDTH 480 0
DWIDTH 10 0
BBX 9 17 1 -4
BITMAP
E000
E000
E000
E000
EE00
FF00
F780
E380
E380
E380
F780
FF00
EE00
E000
E000
E000
E000
ENDCHAR
STARTCHAR U+00ff
ENCODING 255
SWIDTH 480 0
DWIDTH 10 0
BBX 9 17 1 -4
BITMAP
6300
6300
6300
0000
E380
E380
E380
E380
E380
F780
7F80
3B80
0380
4380
E780
7F00
3E00
ENDCHAR
STARTCHAR null
ENCODING 9216
SWIDTH 480 0
DWIDTH 10 0
BBX 9 15 1 -2
BITMAP
CC00
EC00
EC00
FC00
FC00
DC00
CC00
0000
1800
1800
1800
1800
1800
1F80
1F80
ENDCHAR
STARTCHAR box
ENCODING 9633
SWIDTH 480 0
DWIDTH 10 0
BBX 3 20 3 -4
BITMAP
E0
E0
E0
E0
E0
E0
E0
E0
E0
E0
E0
E0
E0
E0
E0
E0
E0
E0
E0
E0
ENDCHAR
STARTCHAR diamond
ENCODING 9830
SWIDTH 480 0
DWIDTH 10 0
BBX 9 9 1 1
BITMAP
0800
1C00
3E00
7F00
FF80
7F00
3E00
1C00
0800
ENDCHAR
ENDFONT
